# xmcd CD database file
#
# Track frame offsets:
#	150
#	19781
#	54375
#	89331
#	112584
#	139508
#	168724
#	189727
#	210535
#
# Disc length: 3203 seconds
#
# Revision: 0
# Processed by: cddbd v1.5.2PL0 Copyright (c) Steve Scherf et al.
# Submitted via: CDex 1.50
#
DISCID=710c8109
DTITLE=Wes Montgomery - Echoes Of Indiana Avenue
DYEAR=1957
DGENRE=Jazz
TTITLE0=Wes Montgomery - Diablo's Dance
TTITLE1=Wes Montgomery - Round Midnight
TTITLE2=Wes Montgomery - Straight No Chaser
TTITLE3=Wes Montgomery - Nica's Dream
TTITLE4=Wes Montgomery - Darn That Dream
TTITLE5=Wes Montgomery - Take The "A" Train
TTITLE6=Wes Montgomery - Misty
TTITLE7=Wes Montgomery - Body and Soul
TTITLE8=Wes Montgomery - After Hours Blues (Improvisation)
EXTD=YEAR: 1957
EXTT0=
EXTT1=
EXTT2=
EXTT3=
EXTT4=
EXTT5=
EXTT6=
EXTT7=
EXTT8=
PLAYORDER=
